<svg xmlns="http://www.w3.org/2000/svg" width="17.887" height="17.887" viewBox="0 0 17.887 17.887">
  <g id="Group_6781" data-name="Group 6781" transform="translate(-669 -273)">
    <path id="Path_3261" data-name="Path 3261" d="M686.887,290.887H669V273h17.887Zm-8.925-4.938c1.033,0,2.066.007,3.1,0a1.035,1.035,0,0,0,1.121-1.112c0-1.51,0-3.02,0-4.53a.886.886,0,0,0-.382-.8.7.7,0,0,1-.325-.611,1,1,0,0,0-1.178-.9c-.166.027-.33.066-.495.1q-2.289.521-4.578,1.045a4.511,4.511,0,0,0-.939.254,1.053,1.053,0,0,0-.537,1.054c0,1.44-.009,2.881,0,4.321a1.075,1.075,0,0,0,1.2,1.171C675.955,285.952,676.958,285.949,677.961,285.949Z" transform="translate(0)" fill="#771bca"/>
    <path id="Path_3262" data-name="Path 3262" d="M752.839,364.583c-1,0-2.007,0-3.01,0a1.075,1.075,0,0,1-1.2-1.171c-.009-1.44,0-2.881,0-4.321a1.053,1.053,0,0,1,.536-1.054,4.51,4.51,0,0,1,.939-.254q2.288-.526,4.578-1.045c.164-.037.328-.077.495-.1a1,1,0,0,1,1.178.9.7.7,0,0,0,.326.611.886.886,0,0,1,.381.8c0,1.51,0,3.02,0,4.53a1.035,1.035,0,0,1-1.121,1.112C754.9,364.59,753.871,364.583,752.839,364.583Zm.035-6.044c-1.042,0-2.085,0-3.127,0-.324,0-.479.15-.48.47q-.006,2.219,0,4.438a.469.469,0,0,0,.522.51q3.068,0,6.135,0a.458.458,0,0,0,.512-.491q.008-2.219,0-4.437c0-.373-.141-.49-.518-.49Q754.392,358.537,752.874,358.539Zm2.843-.667c.05-.486-.1-.647-.529-.576-.283.047-.561.121-.841.185l-1.591.362.009.029Z" transform="translate(-74.877 -78.634)" fill="#fff"/>
    <path id="Path_3263" data-name="Path 3263" d="M762.941,388.8q1.519,0,3.038,0c.377,0,.516.118.518.49q.013,2.219,0,4.437a.458.458,0,0,1-.512.491q-3.067,0-6.135,0a.469.469,0,0,1-.522-.51q0-2.219,0-4.437c0-.32.156-.469.48-.47C760.857,388.8,761.9,388.8,762.941,388.8Zm1.553,2.64-1.1,1.043c-.16.152-.26.318-.066.508s.343.064.485-.077q.591-.587,1.179-1.179c.234-.236.23-.384-.014-.63-.37-.374-.743-.745-1.112-1.119-.15-.152-.322-.284-.513-.112-.211.189-.088.371.078.531C763.769,390.727,764.1,391.053,764.494,391.439Zm-3.121-.013c.421-.4.77-.74,1.122-1.072.151-.142.219-.3.056-.461a.311.311,0,0,0-.474.035q-.62.619-1.239,1.24a.305.305,0,0,0-.045.452c.452.471.913.935,1.393,1.377a.4.4,0,0,0,.379-.04c.065-.057.043-.248.01-.367-.023-.084-.125-.149-.2-.217C762.064,392.074,761.748,391.778,761.373,391.426Z" transform="translate(-84.945 -108.894)" fill="#771bca"/>
    <path id="Path_3264" data-name="Path 3264" d="M820.876,368.286h-2.952l-.009-.029,1.591-.362c.28-.063.558-.138.841-.185C820.772,367.639,820.925,367.8,820.876,368.286Z" transform="translate(-140.036 -89.048)" fill="#771bca"/>
    <path id="Path_3265" data-name="Path 3265" d="M825.907,407.117c-.395-.385-.726-.712-1.06-1.035-.166-.16-.289-.342-.078-.531.192-.172.364-.041.514.112.369.375.742.745,1.112,1.12.243.246.248.394.014.63q-.586.592-1.179,1.179c-.142.141-.3.262-.485.077s-.094-.357.066-.508Z" transform="translate(-146.358 -124.572)" fill="#fff"/>
    <path id="Path_3266" data-name="Path 3266" d="M783.16,407.181c.375.352.691.649,1.006.947.072.068.173.133.2.217.032.118.054.31-.01.367a.4.4,0,0,1-.379.04c-.48-.443-.94-.907-1.393-1.378a.305.305,0,0,1,.045-.452q.617-.623,1.239-1.24a.31.31,0,0,1,.474-.035c.162.158.094.319-.056.461C783.93,406.441,783.582,406.778,783.16,407.181Z" transform="translate(-106.732 -124.649)" fill="#fff"/>
  </g>
</svg>
